<svg width="767" height="467" viewBox="0 0 767 467" fill="none" xmlns="http://www.w3.org/2000/svg">
<rect x="0.5" y="0.5" width="765" height="466" rx="14.5" fill="white" stroke="#D8D8D8"/>
<mask id="mask0" mask-type="alpha" maskUnits="userSpaceOnUse" x="1" y="0" width="766" height="467">
<rect x="1.5" y="0.5" width="765" height="466" rx="14.5" fill="white" stroke="white"/>
</mask>
<g mask="url(#mask0)">
<path opacity="0.6" d="M567.661 428.289C551.467 427.12 538.992 382.217 522.418 376.042C505.843 369.867 516.944 405.761 485.814 399.876C461.496 395.279 456.029 332.582 439.546 344.456C423.064 356.331 402.366 364.643 378.625 360.13C354.883 355.618 365.209 391.382 344.58 357.281C323.951 323.179 316.807 363.93 296.201 363.93C275.595 363.93 286.147 425.544 260.813 411.428C235.479 397.312 221.838 419.919 201.235 421.165C184.173 422.196 179.282 392.698 157.711 398.975C136.14 405.252 134.761 392.904 112.092 392.904C92.0864 392.904 80.4673 434.222 53.4105 431.377C26.3538 428.532 1 419.977 1 419.977V467H767V369.393C767 369.393 759.014 380.816 744.602 380.317C730.191 379.817 735.177 404.066 710.558 405.728C685.938 407.39 680.861 366.631 652.772 357.28C624.682 347.929 619.852 400.024 599.466 396.229C579.079 392.433 583.855 429.458 567.661 428.289Z" fill="#0330CD"/>
<path opacity="0.4" d="M545.817 369.587C554.115 346.304 564.967 278.06 607.416 287.963C649.865 297.865 651.142 386.714 709.549 389.926C765.175 392.984 766.956 381.339 766.999 380.223V380.137C766.999 380.137 767.001 380.167 766.999 380.223V467H1V367.178C1 367.178 1.67393 398.757 36.6048 403.039C71.5357 407.321 75.7001 430.985 95.7924 430.985C118.837 430.985 119.583 408.57 150.051 416.874C180.519 425.178 176.699 404.181 193.457 403.039C215.026 401.57 218.86 337.555 263.946 348.98C309.032 360.405 299.74 320.345 322.72 320.345C345.7 320.345 325.576 357.859 368.992 360.755C412.408 363.652 393.898 422.843 432.832 422.843C461.418 422.843 473.094 404.43 501.772 410.102C530.449 415.775 540.944 383.26 545.817 369.587Z" fill="#0330CD"/>
<path opacity="0.2" d="M557.258 287.178C541.064 285.562 554.383 357.712 525.428 354.775C496.473 351.838 500.774 373.789 485.814 374.253C471.472 374.697 457.408 348.212 440.926 364.619C424.443 381.026 409.755 312.036 385.277 333.649C360.799 355.261 341.434 351.799 320.805 304.68C300.176 257.561 300.267 305.52 282.888 299.975C265.509 294.43 260.425 353.153 235.09 333.649C209.756 314.145 212.861 385.54 192.258 387.261C175.196 388.687 179.282 364.334 157.711 373.008C136.14 381.681 137.52 354.775 114.852 354.775C94.8458 354.775 74.6551 379.263 47.5983 375.332C20.5416 371.4 1 402.028 1 402.028V467H767V332.133C767 332.133 766.134 365.31 751.722 364.619C737.311 363.929 721.354 415.38 708.3 394.48C695.247 373.581 672.897 298.129 644.808 285.209C616.718 272.288 626.768 234.012 606.382 228.768C585.995 223.523 573.452 288.793 557.258 287.178Z" fill="#0330CD"/>
</g>
<line x1="-4.34306e-08" y1="24.6616" x2="766" y2="24.6616" stroke="#D8D8D8"/>
<path d="M42.2784 52.4375C41.9545 49.75 39.9205 48.2045 37.2273 48.2045C34.1534 48.2045 31.8068 50.375 31.8068 54.1818C31.8068 57.9773 34.1136 60.1591 37.2273 60.1591C40.2102 60.1591 42.0114 58.1761 42.2784 56.0341L39.7898 56.0227C39.5568 57.267 38.5795 57.983 37.267 57.983C35.5 57.983 34.3011 56.6705 34.3011 54.1818C34.3011 51.7614 35.483 50.3807 37.2841 50.3807C38.6307 50.3807 39.6023 51.1591 39.7898 52.4375H42.2784ZM43.6772 60H46.0976V55.0625C46.0976 53.9886 46.8817 53.25 47.9499 53.25C48.2851 53.25 48.7453 53.3068 48.9726 53.3807V51.233C48.7567 51.1818 48.4556 51.1477 48.2113 51.1477C47.234 51.1477 46.4328 51.7159 46.1147 52.7955H46.0238V51.2727H43.6772V60ZM51.664 63.2557C53.4651 63.2557 54.4253 62.3409 54.914 60.9432L58.306 51.2841L55.7435 51.2727L53.9197 57.6818H53.8288L52.0219 51.2727H49.4765L52.6072 60.25L52.4651 60.6193C52.1242 61.4091 51.539 61.4659 50.6867 61.1989L50.1413 63.0114C50.4878 63.1534 51.0503 63.2557 51.664 63.2557ZM59.2247 63.2727H61.6451V58.6023H61.719C62.0542 59.3295 62.7872 60.142 64.1963 60.142C66.1849 60.142 67.736 58.5682 67.736 55.6477C67.736 52.6477 66.1167 51.1591 64.2019 51.1591C62.7417 51.1591 62.0428 52.0284 61.719 52.7386H61.611V51.2727H59.2247V63.2727ZM61.594 55.6364C61.594 54.0795 62.2531 53.0852 63.4292 53.0852C64.6281 53.0852 65.2644 54.125 65.2644 55.6364C65.2644 57.1591 64.6167 58.2159 63.4292 58.2159C62.2644 58.2159 61.594 57.1932 61.594 55.6364ZM73.6717 51.2727H72.0297V49.1818H69.6092V51.2727H68.416V53.0909H69.6092V57.6364C69.5978 59.3466 70.7626 60.1932 72.5183 60.1193C73.1433 60.0966 73.5865 59.9716 73.8308 59.892L73.4501 58.0909C73.3308 58.1136 73.0751 58.1705 72.8478 58.1705C72.3649 58.1705 72.0297 57.9886 72.0297 57.3182V53.0909H73.6717V51.2727ZM78.7778 60.1705C81.4256 60.1705 83.0733 58.358 83.0733 55.6705C83.0733 52.9659 81.4256 51.1591 78.7778 51.1591C76.1301 51.1591 74.4824 52.9659 74.4824 55.6705C74.4824 58.358 76.1301 60.1705 78.7778 60.1705ZM78.7892 58.2955C77.5676 58.2955 76.9426 57.1761 76.9426 55.6534C76.9426 54.1307 77.5676 53.0057 78.7892 53.0057C79.9881 53.0057 80.6131 54.1307 80.6131 55.6534C80.6131 57.1761 79.9881 58.2955 78.7892 58.2955Z" fill="black"/>
<path d="M85.7419 60.1477C86.4692 60.1477 87.0999 59.5398 87.1056 58.7841C87.0999 58.0398 86.4692 57.4318 85.7419 57.4318C84.9919 57.4318 84.3726 58.0398 84.3783 58.7841C84.3726 59.5398 84.9919 60.1477 85.7419 60.1477Z" fill="#0032E3"/>
<rect x="463" y="53.3428" width="57" height="2.01293" fill="#C4C4C4"/>
<rect x="37" y="259.662" width="57" height="2.01293" fill="#C4C4C4"/>
<rect x="37" y="269.733" width="57" height="2.01293" fill="#C4C4C4"/>
<rect x="37" y="279" width="57" height="2" fill="#C4C4C4"/>
<path d="M554 55.3555H611V53.3425H554V55.3555Z" fill="#C4C4C4"/>
<rect width="57" height="2.01293" transform="matrix(1 0 0 -1 644 55.3555)" fill="#C4C4C4"/>
<g filter="url(#filter0_d)">
<ellipse cx="382" cy="210.433" rx="67" ry="67.4332" fill="white"/>
</g>
<path fill-rule="evenodd" clip-rule="evenodd" d="M377.159 223.747L377.35 223.584L391.538 211.255C392.018 210.838 392.317 210.212 392.317 209.514C392.317 208.816 392.009 208.191 391.538 207.774L377.377 195.453L377.141 195.245C376.915 195.091 376.643 195 376.353 195C375.564 195 374.92 195.671 374.92 196.505V222.505C374.92 223.339 375.564 224.01 376.353 224.01C376.652 224.01 376.933 223.911 377.159 223.747Z" fill="#001B36"/>
<mask id="mask1" mask-type="alpha" maskUnits="userSpaceOnUse" x="374" y="195" width="19" height="30">
<path fill-rule="evenodd" clip-rule="evenodd" d="M377.159 223.747L377.35 223.584L391.538 211.255C392.018 210.838 392.317 210.212 392.317 209.514C392.317 208.816 392.009 208.191 391.538 207.774L377.377 195.453L377.141 195.245C376.915 195.091 376.643 195 376.353 195C375.564 195 374.92 195.671 374.92 196.505V222.505C374.92 223.339 375.564 224.01 376.353 224.01C376.652 224.01 376.933 223.911 377.159 223.747Z" fill="white"/>
</mask>
<g mask="url(#mask1)">
<rect x="368.876" y="195" width="29" height="29" fill="#001B36"/>
</g>
<ellipse cx="734.5" cy="54.8527" rx="11.5" ry="11.5744" fill="#C4C4C4"/>
<path d="M33.5064 177.273L39.5913 187.76V194H42.6133V187.76L48.6982 177.273H45.2759L41.1839 184.673H41.0206L36.9286 177.273H33.5064ZM53.3899 194.245C57.0653 194.245 59.4012 191.656 59.4012 187.776C59.4012 183.888 57.0653 181.291 53.3899 181.291C49.7144 181.291 47.3785 183.888 47.3785 187.776C47.3785 191.656 49.7144 194.245 53.3899 194.245ZM53.4062 191.876C51.3725 191.876 50.376 190.063 50.376 187.768C50.376 185.473 51.3725 183.635 53.4062 183.635C55.4073 183.635 56.4037 185.473 56.4037 187.768C56.4037 190.063 55.4073 191.876 53.4062 191.876ZM69.4468 188.724C69.4468 190.635 68.0828 191.582 66.776 191.582C65.3549 191.582 64.4074 190.578 64.4074 188.985V181.455H61.4507V189.442C61.4507 192.456 63.1659 194.163 65.6326 194.163C67.5111 194.163 68.8343 193.175 69.406 191.77H69.5367V194H72.4035V181.455H69.4468V188.724ZM74.9839 194H77.9406V186.625C77.9406 185.032 79.1412 183.905 80.7666 183.905C81.2648 183.905 81.8855 183.995 82.1387 184.076V181.357C81.8692 181.308 81.4036 181.275 81.0769 181.275C79.6394 181.275 78.4388 182.092 77.9814 183.545H77.8507V181.455H74.9839V194ZM91.8448 186.649C91.8448 184.836 92.9719 183.79 94.5564 183.79C96.1083 183.79 97.0231 184.779 97.0231 186.469V194H99.9797V186.012C99.9797 182.982 98.2645 181.291 95.6591 181.291C93.7315 181.291 92.5064 182.165 91.9265 183.586H91.7795V177.273H88.8881V194H91.8448V186.649ZM108.006 194.245C111.681 194.245 114.017 191.656 114.017 187.776C114.017 183.888 111.681 181.291 108.006 181.291C104.33 181.291 101.995 183.888 101.995 187.776C101.995 191.656 104.33 194.245 108.006 194.245ZM108.022 191.876C105.988 191.876 104.992 190.063 104.992 187.768C104.992 185.473 105.988 183.635 108.022 183.635C110.023 183.635 111.02 185.473 111.02 187.768C111.02 190.063 110.023 191.876 108.022 191.876ZM119.023 177.273H116.067V194H119.023V177.273ZM126.259 194.221C128.416 194.221 129.388 192.938 129.853 192.023H130.033V194H132.94V177.273H129.976V183.529H129.853C129.404 182.623 128.481 181.291 126.268 181.291C123.368 181.291 121.089 183.562 121.089 187.744C121.089 191.876 123.303 194.221 126.259 194.221ZM127.084 191.795C125.132 191.795 124.103 190.08 124.103 187.727C124.103 185.391 125.116 183.717 127.084 183.717C128.987 183.717 130.033 185.293 130.033 187.727C130.033 190.161 128.971 191.795 127.084 191.795ZM135.631 194H138.588V181.455H135.631V194ZM137.118 179.674C138.057 179.674 138.825 178.955 138.825 178.073C138.825 177.183 138.057 176.464 137.118 176.464C136.17 176.464 135.402 177.183 135.402 178.073C135.402 178.955 136.17 179.674 137.118 179.674ZM144.125 186.649C144.125 184.836 145.219 183.79 146.779 183.79C148.307 183.79 149.221 184.795 149.221 186.469V194H152.178V186.012C152.186 183.006 150.471 181.291 147.882 181.291C146.003 181.291 144.713 182.19 144.141 183.586H143.994V181.455H141.168V194H144.125V186.649ZM160.18 198.917C163.569 198.917 166.069 197.365 166.069 194.204V181.455H163.153V183.529H162.989C162.54 182.623 161.601 181.291 159.388 181.291C156.488 181.291 154.209 183.562 154.209 187.686C154.209 191.778 156.488 193.82 159.379 193.82C161.527 193.82 162.532 192.669 162.989 191.746H163.136V194.123C163.136 195.919 161.911 196.679 160.229 196.679C158.448 196.679 157.664 195.838 157.305 195.152L154.642 195.797C155.181 197.504 156.986 198.917 160.18 198.917ZM160.204 191.501C158.252 191.501 157.223 189.982 157.223 187.67C157.223 185.391 158.236 183.717 160.204 183.717C162.107 183.717 163.153 185.293 163.153 187.67C163.153 190.063 162.091 191.501 160.204 191.501ZM178.554 184.771C178.146 182.647 176.447 181.291 173.507 181.291C170.485 181.291 168.426 182.778 168.435 185.097C168.426 186.927 169.554 188.136 171.963 188.634L174.103 189.083C175.255 189.336 175.794 189.802 175.794 190.512C175.794 191.37 174.863 192.015 173.458 192.015C172.102 192.015 171.22 191.427 170.967 190.3L168.083 190.578C168.451 192.881 170.387 194.245 173.466 194.245C176.602 194.245 178.816 192.62 178.824 190.243C178.816 188.454 177.664 187.36 175.295 186.845L173.156 186.388C171.881 186.102 171.375 185.661 171.383 184.934C171.375 184.085 172.314 183.496 173.548 183.496C174.912 183.496 175.63 184.24 175.859 185.065L178.554 184.771ZM182.623 194.18C183.587 194.18 184.412 193.379 184.42 192.383C184.412 191.403 183.587 190.602 182.623 190.602C181.627 190.602 180.818 191.403 180.826 192.383C180.818 193.379 181.627 194.18 182.623 194.18ZM182.623 185.22C183.587 185.22 184.412 184.419 184.42 183.423C184.412 182.443 183.587 181.642 182.623 181.642C181.627 181.642 180.818 182.443 180.826 183.423C180.818 184.419 181.627 185.22 182.623 185.22ZM39.6648 224.091H41.0043V222.27C44.4347 222.033 46.3622 220.007 46.3622 217.459C46.3622 214.322 43.3892 213.31 41.6577 212.852L41.0043 212.673V206.865C42.7358 207.037 43.9936 207.968 44.1733 209.455H46.1335C46.0518 207.07 43.9609 205.256 41.0043 205.06V203.182H39.6648V205.085C36.8633 205.371 34.7642 207.151 34.7642 209.716C34.7642 211.97 36.3977 213.31 39.0114 214.061L39.6648 214.249V220.432C37.9496 220.252 36.5447 219.37 36.3977 217.688H34.3068C34.4947 220.26 36.4549 222.057 39.6648 222.27V224.091ZM41.0043 220.432V214.633L41.0696 214.649C42.8338 215.139 44.402 215.76 44.402 217.426C44.402 219.068 42.9808 220.211 41.0043 220.432ZM39.6648 212.313C38.4233 211.962 36.7244 211.276 36.7244 209.618C36.7244 208.205 37.8679 207.127 39.6648 206.89V212.313ZM54.8192 205.273H52.7936L48.6118 208.05V210.108L52.6956 207.396H52.7936V222H54.8192V205.273ZM59.1699 222H69.7225V220.203H61.9469V220.072L65.704 216.054C68.579 212.975 69.4285 211.537 69.4285 209.683C69.4285 207.102 67.3375 205.044 64.3972 205.044C61.465 205.044 59.2353 207.037 59.2353 209.977H61.1628C61.1628 208.074 62.3961 206.808 64.3319 206.808C66.1451 206.808 67.5336 207.919 67.5336 209.683C67.5336 211.227 66.627 212.37 64.6912 214.486L59.1699 220.53V222ZM77.863 222.229C81.0484 222.229 83.3843 219.876 83.3843 216.675C83.3843 213.432 81.13 211.055 78.059 211.055C76.9319 211.055 75.8374 211.456 75.1513 212.003H75.0533L75.6414 207.07H82.6329V205.273H73.9425L72.9297 213.506L74.8246 213.734C75.5189 213.236 76.7032 212.877 77.7323 212.885C79.8641 212.901 81.4241 214.518 81.4241 216.707C81.4241 218.855 79.9212 220.432 77.863 220.432C76.1478 220.432 74.7838 219.329 74.6286 217.818H72.6684C72.7909 220.366 74.988 222.229 77.863 222.229ZM88.4476 219.713H86.3567L86.2587 220.628C86.0219 222.841 85.5563 225.047 85.3439 226.084H86.8141C87.2062 224.973 88.0393 222.457 88.317 220.595L88.4476 219.713ZM91.5263 222H102.079V220.203H94.3033V220.072L98.0604 216.054C100.935 212.975 101.785 211.537 101.785 209.683C101.785 207.102 99.6939 205.044 96.7535 205.044C93.8214 205.044 91.5916 207.037 91.5916 209.977H93.5192C93.5192 208.074 94.7525 206.808 96.6882 206.808C98.5014 206.808 99.8899 207.919 99.8899 209.683C99.8899 211.227 98.9833 212.37 97.0476 214.486L91.5263 220.53V222ZM110.317 205.011C106.92 204.979 104.731 207.527 104.731 210.631C104.731 213.865 107.116 216.185 109.991 216.185C111.722 216.185 113.192 215.335 114.107 213.963H114.238C114.238 218.08 112.637 220.432 110.056 220.432C108.292 220.432 107.214 219.321 106.854 217.786H104.861C105.253 220.432 107.246 222.229 110.056 222.229C113.813 222.229 116.133 218.896 116.133 212.95C116.133 206.776 113.062 205.044 110.317 205.011ZM110.317 206.808C112.408 206.808 113.944 208.605 113.944 210.598C113.944 212.591 112.31 214.388 110.252 214.388C108.194 214.388 106.691 212.722 106.691 210.631C106.691 208.507 108.259 206.808 110.317 206.808ZM124.21 205.011C120.812 204.979 118.623 207.527 118.623 210.631C118.623 213.865 121.008 216.185 123.883 216.185C125.615 216.185 127.085 215.335 128 213.963H128.13C128.13 218.08 126.529 220.432 123.949 220.432C122.184 220.432 121.106 219.321 120.747 217.786H118.754C119.146 220.432 121.139 222.229 123.949 222.229C127.706 222.229 130.025 218.896 130.025 212.95C130.025 206.776 126.954 205.044 124.21 205.011ZM124.21 206.808C126.301 206.808 127.836 208.605 127.836 210.598C127.836 212.591 126.203 214.388 124.145 214.388C122.086 214.388 120.583 212.722 120.583 210.631C120.583 208.507 122.152 206.808 124.21 206.808Z" fill="#1F1E1E"/>
<path d="M140.525 218.296H141.528V216.587H143.238V215.583H141.528V213.873H140.525V215.583H138.815V216.587H140.525V218.296ZM146.784 219.434C148.2 219.434 149.213 218.654 149.216 217.59C149.213 216.772 148.609 216.088 147.848 215.96V215.915C148.51 215.768 148.97 215.174 148.973 214.464C148.97 213.458 148.043 212.71 146.784 212.71C145.515 212.71 144.588 213.454 144.592 214.464C144.588 215.174 145.042 215.768 145.717 215.915V215.96C144.943 216.088 144.345 216.772 144.349 217.59C144.345 218.654 145.355 219.434 146.784 219.434ZM146.784 218.52C146.043 218.52 145.563 218.111 145.57 217.507C145.563 216.881 146.078 216.436 146.784 216.436C147.481 216.436 147.992 216.884 147.999 217.507C147.992 218.111 147.516 218.52 146.784 218.52ZM146.784 215.538C146.177 215.538 145.742 215.145 145.749 214.576C145.742 214.014 146.164 213.637 146.784 213.637C147.394 213.637 147.813 214.014 147.82 214.576C147.813 215.148 147.382 215.538 146.784 215.538ZM150.619 219.415C150.996 219.415 151.319 219.102 151.322 218.712C151.319 218.328 150.996 218.015 150.619 218.015C150.229 218.015 149.913 218.328 149.916 218.712C149.913 219.102 150.229 219.415 150.619 219.415ZM154.52 219.434C155.904 219.434 156.869 218.495 156.869 217.194C156.869 215.935 155.994 215.027 154.805 215.027C154.274 215.027 153.804 215.238 153.562 215.525H153.523L153.712 213.79H156.527V212.799H152.731L152.389 216.174L153.459 216.35C153.68 216.107 154.095 215.944 154.488 215.947C155.208 215.951 155.725 216.481 155.722 217.223C155.725 217.954 155.22 218.475 154.52 218.475C153.929 218.475 153.453 218.101 153.411 217.565H152.261C152.293 218.651 153.242 219.434 154.52 219.434ZM161.26 218.117C161.263 218.878 161.746 219.527 162.644 219.527C163.539 219.527 164.031 218.878 164.028 218.117V217.772C164.031 217.005 163.551 216.363 162.644 216.363C161.758 216.363 161.263 217.012 161.26 217.772V218.117ZM157.933 214.372C157.936 215.132 158.418 215.775 159.32 215.775C160.211 215.775 160.704 215.139 160.7 214.372V214.027C160.704 213.259 160.224 212.617 159.32 212.617C158.438 212.617 157.936 213.259 157.933 214.027V214.372ZM158.22 219.345H159.023L163.523 212.799H162.72L158.22 219.345ZM162.094 217.772C162.097 217.434 162.241 217.092 162.644 217.092C163.066 217.092 163.19 217.434 163.187 217.772V218.117C163.19 218.456 163.053 218.792 162.644 218.792C162.235 218.792 162.097 218.453 162.094 218.117V217.772ZM158.773 214.027C158.776 213.691 158.914 213.346 159.32 213.346C159.742 213.346 159.863 213.688 159.86 214.027V214.372C159.863 214.71 159.729 215.046 159.32 215.046C158.911 215.046 158.776 214.71 158.773 214.372V214.027Z" fill="#6FA52B"/>
<rect x="136.5" y="209.845" width="30" height="12" rx="1.5" stroke="#6FA52B"/>
<defs>
<filter id="filter0_d" x="260" y="114" width="244" height="244.866" filterUnits="userSpaceOnUse" color-interpolation-filters="sRGB">
<feFlood flood-opacity="0" result="BackgroundImageFix"/>
<feColorMatrix in="SourceAlpha" type="matrix" values="0 0 0 0 0 0 0 0 0 0 0 0 0 0 0 0 0 0 127 0"/>
<feOffset dy="26"/>
<feGaussianBlur stdDeviation="27.5"/>
<feColorMatrix type="matrix" values="0 0 0 0 0 0 0 0 0 0 0 0 0 0 0 0 0 0 0.13 0"/>
<feBlend mode="normal" in2="BackgroundImageFix" result="effect1_dropShadow"/>
<feBlend mode="normal" in="SourceGraphic" in2="effect1_dropShadow" result="shape"/>
</filter>
</defs>
</svg>
