<svg width="102" height="28" viewBox="0 0 102 28" fill="none" xmlns="http://www.w3.org/2000/svg">
<path d="M19.9421 8.29297C19.3551 3.42188 15.6683 0.620738 10.7869 0.620738C5.21555 0.620738 0.962358 4.55469 0.962358 11.4545C0.962358 18.3338 5.14347 22.2884 10.7869 22.2884C16.1935 22.2884 19.4581 18.6942 19.9421 14.8118L15.4315 14.7912C15.0092 17.0465 13.2379 18.3441 10.859 18.3441C7.65625 18.3441 5.48331 15.9652 5.48331 11.4545C5.48331 7.06747 7.62536 4.56499 10.8899 4.56499C13.3306 4.56499 15.0916 5.97585 15.4315 8.29297H19.9421ZM22.4774 22H26.8644V13.0508C26.8644 11.1044 28.2856 9.76562 30.2217 9.76562C30.8293 9.76562 31.6634 9.86861 32.0754 10.0025V6.10973C31.684 6.01705 31.1382 5.95526 30.6954 5.95526C28.9241 5.95526 27.472 6.98509 26.8953 8.94176H26.7305V6.18182H22.4774V22ZM36.9535 27.9009C40.218 27.9009 41.9584 26.2429 42.8441 23.7095L48.9922 6.20241L44.3476 6.18182L41.0419 17.7983H40.8771L37.6023 6.18182H32.9886L38.663 22.4531L38.4055 23.1225C37.7876 24.554 36.7269 24.657 35.1822 24.1729L34.1935 27.4581C34.8217 27.7156 35.8412 27.9009 36.9535 27.9009ZM50.6572 27.9318H55.0443V19.4666H55.1781C55.7857 20.7848 57.1142 22.2575 59.6682 22.2575C63.2726 22.2575 66.084 19.4048 66.084 14.1115C66.084 8.67401 63.149 5.97585 59.6785 5.97585C57.0318 5.97585 55.7651 7.55149 55.1781 8.83878H54.9825V6.18182H50.6572V27.9318ZM54.9516 14.0909C54.9516 11.2692 56.1462 9.46697 58.2779 9.46697C60.4509 9.46697 61.6043 11.3516 61.6043 14.0909C61.6043 16.8509 60.4303 18.7663 58.2779 18.7663C56.1668 18.7663 54.9516 16.9126 54.9516 14.0909ZM76.8425 6.18182H73.8663V2.39205H69.4792V6.18182H67.3165V9.47727H69.4792V17.7159C69.4586 20.8157 71.5697 22.3501 74.7519 22.2163C75.8847 22.1751 76.688 21.9485 77.1308 21.8043L76.4408 18.5398C76.2246 18.581 75.7611 18.6839 75.3492 18.6839C74.4739 18.6839 73.8663 18.3544 73.8663 17.1392V9.47727H76.8425V6.18182ZM86.0973 22.3089C90.8963 22.3089 93.8828 19.0238 93.8828 14.1527C93.8828 9.25071 90.8963 5.97585 86.0973 5.97585C81.2983 5.97585 78.3118 9.25071 78.3118 14.1527C78.3118 19.0238 81.2983 22.3089 86.0973 22.3089ZM86.1179 18.9105C83.9038 18.9105 82.771 16.8817 82.771 14.1218C82.771 11.3619 83.9038 9.3228 86.1179 9.3228C88.2909 9.3228 89.4237 11.3619 89.4237 14.1218C89.4237 16.8817 88.2909 18.9105 86.1179 18.9105Z" fill="white"/>
<path d="M98.7197 22.2678C100.038 22.2678 101.181 21.1658 101.191 19.7962C101.181 18.4471 100.038 17.3452 98.7197 17.3452C97.3604 17.3452 96.2379 18.4471 96.2482 19.7962C96.2379 21.1658 97.3604 22.2678 98.7197 22.2678Z" fill="#5288F1"/>
</svg>
