<svg width="84" height="23" viewBox="0 0 84 23" fill="none" xmlns="http://www.w3.org/2000/svg">
<path d="M15.9176 6.65625C15.4318 2.625 12.3807 0.306818 8.34091 0.306818C3.73011 0.306818 0.210227 3.5625 0.210227 9.27273C0.210227 14.9659 3.67045 18.2386 8.34091 18.2386C12.8153 18.2386 15.517 15.2642 15.9176 12.0511L12.1847 12.0341C11.8352 13.9006 10.3693 14.9744 8.40057 14.9744C5.75 14.9744 3.9517 13.0057 3.9517 9.27273C3.9517 5.64204 5.72443 3.57102 8.42614 3.57102C10.446 3.57102 11.9034 4.73864 12.1847 6.65625H15.9176ZM18.0157 18H21.6464V10.5938C21.6464 8.98295 22.8226 7.875 24.4248 7.875C24.9277 7.875 25.618 7.96023 25.9589 8.07102V4.84943C25.6351 4.77273 25.1834 4.72159 24.8169 4.72159C23.351 4.72159 22.1493 5.57386 21.672 7.19318H21.5356V4.90909H18.0157V18ZM29.996 22.8835C32.6977 22.8835 34.138 21.5114 34.871 19.4148L39.959 4.92614L36.1153 4.90909L33.3795 14.5227H33.2431L30.5329 4.90909H26.7147L31.4107 18.375L31.1977 18.929C30.6863 20.1136 29.8085 20.1989 28.5301 19.7983L27.7119 22.517C28.2318 22.7301 29.0755 22.8835 29.996 22.8835ZM41.337 22.9091H44.9677V15.9034H45.0785C45.5813 16.9943 46.6807 18.2131 48.7944 18.2131C51.7773 18.2131 54.104 15.8523 54.104 11.4716C54.104 6.97159 51.6751 4.73864 48.8029 4.73864C46.6126 4.73864 45.5643 6.04261 45.0785 7.10795H44.9165V4.90909H41.337V22.9091ZM44.891 11.4545C44.891 9.11932 45.8796 7.62784 47.6438 7.62784C49.4421 7.62784 50.3966 9.1875 50.3966 11.4545C50.3966 13.7386 49.4251 15.3239 47.6438 15.3239C45.8966 15.3239 44.891 13.7898 44.891 11.4545ZM63.0076 4.90909H60.5445V1.77273H56.9138V4.90909H55.124V7.63636H56.9138V14.4545C56.8968 17.0199 58.6439 18.2898 61.2774 18.179C62.2149 18.1449 62.8797 17.9574 63.2462 17.8381L62.6752 15.1364C62.4962 15.1705 62.1127 15.2557 61.7718 15.2557C61.0473 15.2557 60.5445 14.983 60.5445 13.9773V7.63636H63.0076V4.90909ZM70.6668 18.2557C74.6384 18.2557 77.1099 15.5369 77.1099 11.5057C77.1099 7.44886 74.6384 4.73864 70.6668 4.73864C66.6952 4.73864 64.2236 7.44886 64.2236 11.5057C64.2236 15.5369 66.6952 18.2557 70.6668 18.2557ZM70.6838 15.4432C68.8514 15.4432 67.9139 13.7642 67.9139 11.4801C67.9139 9.19602 68.8514 7.50852 70.6838 7.50852C72.4821 7.50852 73.4196 9.19602 73.4196 11.4801C73.4196 13.7642 72.4821 15.4432 70.6838 15.4432Z" fill="black"/>
<path d="M81.1129 18.2216C82.2038 18.2216 83.1498 17.3097 83.1584 16.1761C83.1498 15.0597 82.2038 14.1477 81.1129 14.1477C79.9879 14.1477 79.0589 15.0597 79.0674 16.1761C79.0589 17.3097 79.9879 18.2216 81.1129 18.2216Z" fill="#0032E3"/>
</svg>
